fd_4_states
version=1
nRows=35
nColumns=17
inDegrees=yes

# SIMM Motion File Header:
name fd_4_states
datacolumns 17
datarows 35
otherdata 1
range 0.359390 0.378932
endheader
time	/jointset/r_shoulder/r_shoulder_elev/value	/jointset/r_shoulder/r_shoulder_elev/speed	/jointset/r_elbow/r_elbow_flex/value	/jointset/r_elbow/r_elbow_flex/speed	/forceset/TRIlong/activation	/forceset/TRIlong/fiber_length	/forceset/TRIlat/activation	/forceset/TRIlat/fiber_length	/forceset/TRImed/activation	/forceset/TRImed/fiber_length	/forceset/BIClong/activation	/forceset/BIClong/fiber_length	/forceset/BICshort/activation	/forceset/BICshort/fiber_length	/forceset/BRA/activation	/forceset/BRA/fiber_length
      0.359390	     -7.919939	     51.284529	     80.371758	    293.245261	      0.021508	      0.161521	      0.194167	      0.099642	      0.190963	      0.094717	      0.895619	      0.106772	      0.393308	      0.105783	      0.022310	      0.072484
      0.359864	     -7.895561	     51.626095	     80.510704	    293.331294	      0.021498	      0.161569	      0.194853	      0.099687	      0.191639	      0.094762	      0.898264	      0.106642	      0.397332	      0.105637	      0.022296	      0.072433
      0.359981	     -7.889497	     51.709824	     80.545131	    293.356050	      0.021496	      0.161584	      0.195016	      0.099698	      0.191800	      0.094773	      0.898908	      0.106610	      0.398299	      0.105601	      0.022292	      0.072420
      0.360024	     -7.887276	     51.740391	     80.557730	    293.365503	      0.021495	      0.161590	      0.195079	      0.099702	      0.191863	      0.094777	      0.899131	      0.106598	      0.398412	      0.105588	      0.022291	      0.072416
      0.360067	     -7.885053	     51.770921	     80.570329	    293.375166	      0.021494	      0.161595	      0.195156	      0.099706	      0.191943	      0.094782	      0.899310	      0.106586	      0.397974	      0.105575	      0.022290	      0.072411
      0.360138	     -7.881373	     51.821349	     80.591175	    293.391607	      0.021493	      0.161604	      0.195281	      0.099713	      0.192075	      0.094788	      0.899603	      0.106567	      0.397238	      0.105553	      0.022287	      0.072403
      0.360493	     -7.862918	     52.072186	     80.695421	    293.481613	      0.021486	      0.161650	      0.195892	      0.099746	      0.192715	      0.094822	      0.901052	      0.106470	      0.393594	      0.105446	      0.022277	      0.072365
      0.362269	     -7.769322	     53.308943	     81.217226	    294.067240	      0.021451	      0.161873	      0.198559	      0.099915	      0.195508	      0.094991	      0.907870	      0.105984	      0.376144	      0.104946	      0.022223	      0.072171
      0.362826	     -7.739557	     53.693379	     81.380887	    294.275424	      0.021440	      0.161977	      0.199277	      0.099968	      0.196260	      0.095044	      0.909869	      0.105832	      0.370930	      0.104799	      0.022207	      0.072111
      0.363382	     -7.709577	     54.081184	     81.544668	    294.496727	      0.021430	      0.162025	      0.199946	      0.100022	      0.196959	      0.095097	      0.911805	      0.105679	      0.365830	      0.104654	      0.022191	      0.072050
      0.364261	     -7.661769	     54.694493	     81.803686	    294.840528	      0.021413	      0.162135	      0.200911	      0.100106	      0.197967	      0.095182	      0.914743	      0.105439	      0.357995	      0.104432	      0.022165	      0.071953
      0.364889	     -7.627292	     55.134720	     81.988876	    295.078507	      0.021401	      0.162256	      0.201537	      0.100167	      0.198622	      0.095242	      0.916755	      0.105268	      0.352560	      0.104277	      0.022147	      0.071884
      0.365517	     -7.592535	     55.582353	     82.174216	    295.321030	      0.021390	      0.162305	      0.202116	      0.100228	      0.199225	      0.095303	      0.918698	      0.105096	      0.347253	      0.104124	      0.022129	      0.071815
      0.366427	     -7.541665	     56.234490	     82.443074	    295.641945	      0.021373	      0.162419	      0.202877	      0.100317	      0.200020	      0.095392	      0.921395	      0.104847	      0.339782	      0.103906	      0.022104	      0.071714
      0.367019	     -7.508211	     56.663169	     82.618343	    295.832491	      0.021362	      0.162537	      0.203328	      0.100375	      0.200490	      0.095450	      0.923080	      0.104685	      0.335050	      0.103766	      0.022087	      0.071648
      0.367612	     -7.474500	     57.099939	     82.793725	    296.020718	      0.021351	      0.162583	      0.203746	      0.100434	      0.200926	      0.095508	      0.924711	      0.104523	      0.330421	      0.103627	      0.022071	      0.071582
      0.368510	     -7.422907	     57.767237	     83.059763	    296.267291	      0.021335	      0.162696	      0.204324	      0.100522	      0.201528	      0.095597	      0.927083	      0.104277	      0.323592	      0.103418	      0.022046	      0.071482
      0.369084	     -7.389666	     58.197064	     83.229653	    296.400600	      0.021325	      0.162812	      0.204661	      0.100579	      0.201878	      0.095653	      0.928537	      0.104121	      0.319348	      0.103286	      0.022030	      0.071418
      0.369657	     -7.356176	     58.635131	     83.399618	    296.529385	      0.021315	      0.162856	      0.204974	      0.100636	      0.202204	      0.095710	      0.929947	      0.103964	      0.315190	      0.103154	      0.022015	      0.071354
      0.369954	     -7.338715	     58.862438	     83.487759	    296.585242	      0.021310	      0.162895	      0.205128	      0.100665	      0.202364	      0.095740	      0.930660	      0.103882	      0.313068	      0.103086	      0.022007	      0.071321
      0.370064	     -7.332262	     58.946496	     83.520252	    296.604641	      0.021308	      0.162909	      0.205167	      0.100676	      0.202403	      0.095750	      0.930958	      0.103852	      0.312533	      0.103061	      0.022004	      0.071309
      0.370240	     -7.321859	     59.082051	     83.572537	    296.634639	      0.021305	      0.162933	      0.205165	      0.100694	      0.202396	      0.095768	      0.931596	      0.103804	      0.312798	      0.103021	      0.021999	      0.071289
      0.371121	     -7.269487	     59.763918	     83.834035	    296.769270	      0.021290	      0.163051	      0.205156	      0.100782	      0.202365	      0.095856	      0.934697	      0.103562	      0.314051	      0.102815	      0.021976	      0.071190
      0.371920	     -7.221521	     60.384134	     84.071038	    296.879049	      0.021276	      0.163178	      0.205148	      0.100863	      0.202337	      0.095937	      0.937379	      0.103342	      0.315090	      0.102624	      0.021955	      0.071100
      0.372537	     -7.184087	     60.867039	     84.254374	    296.966339	      0.021266	      0.163240	      0.205141	      0.100925	      0.202316	      0.095999	      0.939374	      0.103172	      0.315836	      0.102475	      0.021939	      0.071030
      0.373155	     -7.146356	     61.348009	     84.437762	    297.046325	      0.021255	      0.163352	      0.205135	      0.100987	      0.202295	      0.096061	      0.941302	      0.103002	      0.316535	      0.102323	      0.021923	      0.070960
      0.373772	     -7.108327	     61.832004	     84.621203	    297.135753	      0.021245	      0.163409	      0.205129	      0.101050	      0.202274	      0.096124	      0.943166	      0.102831	      0.317191	      0.102170	      0.021907	      0.070890
      0.374541	     -7.060576	     62.429738	     84.849606	    297.237765	      0.021232	      0.163597	      0.205121	      0.101128	      0.202248	      0.096201	      0.945400	      0.102619	      0.317951	      0.101978	      0.021888	      0.070803
      0.375309	     -7.012360	     63.039613	     85.078105	    297.380226	      0.021220	      0.163629	      0.205114	      0.101205	      0.202223	      0.096279	      0.947542	      0.102406	      0.318652	      0.101784	      0.021869	      0.070716
      0.375796	     -6.981592	     63.418838	     85.222830	    297.455048	      0.021212	      0.163687	      0.205109	      0.101255	      0.202208	      0.096328	      0.948854	      0.102271	      0.319068	      0.101660	      0.021857	      0.070660
      0.376496	     -6.937004	     63.962199	     85.431109	    297.562843	      0.021201	      0.163810	      0.205103	      0.101326	      0.202185	      0.096399	      0.950681	      0.102077	      0.319631	      0.101481	      0.021839	      0.070581
      0.377196	     -6.892034	     64.508239	     85.639468	    297.685815	      0.021190	      0.163876	      0.205096	      0.101397	      0.202163	      0.096470	      0.952440	      0.101882	      0.320155	      0.101301	      0.021822	      0.070501
      0.377760	     -6.855540	     64.944077	     85.807337	    297.779765	      0.021181	      0.164002	      0.205091	      0.101454	      0.202146	      0.096527	      0.953809	      0.101726	      0.320550	      0.101155	      0.021809	      0.070436
      0.378324	     -6.818798	     65.384518	     85.975264	    297.891243	      0.021172	      0.164040	      0.205086	      0.101511	      0.202129	      0.096584	      0.955138	      0.101569	      0.320922	      0.101009	      0.021795	      0.070371
      0.378932	     -6.778855	     65.855417	     86.156627	    298.004371	      0.021162	      0.164119	      0.205080	      0.101573	      0.202110	      0.096646	      0.956528	      0.101400	      0.321301	      0.100850	      0.021781	      0.070302
